<?xml version="1.0" encoding="UTF-8"?>
<svg version="1.1" xmlns="http://www.w3.org/2000/svg" width="2000" height="1500">
<path d="M0 0 C660 0 1320 0 2000 0 C2000 495 2000 990 2000 1500 C1340 1500 680 1500 0 1500 C0 1005 0 510 0 0 Z " fill="#FEFEFE" transform="translate(0,0)"/>
<path d="M0 0 C485.76 0 971.52 0 1472 0 C1472 143.22 1472 286.44 1472 434 C1354.19 434 1236.38 434 1115 434 C1115 429.71 1115 425.42 1115 421 C1228.52 421 1342.04 421 1459 421 C1459 286.36 1459 151.72 1459 13 C981.82 13 504.64 13 13 13 C13 147.64 13 282.28 13 421 C126.52 421 240.04 421 357 421 C357 425.29 357 429.58 357 434 C239.19 434 121.38 434 0 434 C0 290.78 0 147.56 0 0 Z " fill="#1C1C1C" transform="translate(264,524)"/>
<path d="M0 0 C1.4393875 1.05295734 2.85687996 2.13654946 4.25 3.25 C4.92675781 3.77851562 5.60351562 4.30703125 6.30078125 4.8515625 C16.78891232 14.09741008 21.88751691 28.69261873 23.25 42.25 C24.6538523 64.5786402 20.10546055 83.3729146 5.3125 100.4921875 C-4.49947564 110.97675825 -16.9602055 116.22894194 -31.23901367 116.72265625 C-39.76034222 116.81105014 -47.06202238 116.23410251 -54.75 112.25 C-55.73871094 111.75628906 -56.72742188 111.26257813 -57.74609375 110.75390625 C-61.9961968 108.53766266 -65.33870782 106.66129218 -68.75 103.25 C-69.08 122.06 -69.41 140.87 -69.75 160.25 C-61.83 160.25 -53.91 160.25 -45.75 160.25 C-43.75 162.25 -43.75 162.25 -43.75 166.25 C-65.86 166.25 -87.97 166.25 -110.75 166.25 C-110.75 163.94 -110.75 161.63 -110.75 159.25 C-109.66332031 159.19392578 -109.66332031 159.19392578 -108.5546875 159.13671875 C-100.73235365 158.62270152 -100.73235365 158.62270152 -93.75 155.25 C-91.55585098 151.91657201 -91.49153402 149.08502317 -91.4715271 145.15032959 C-91.46036362 143.89953613 -91.44920013 142.64874268 -91.43769836 141.36004639 C-91.43533349 139.97668487 -91.43315782 138.59332302 -91.43115234 137.20996094 C-91.42185283 135.75125574 -91.41168413 134.29255587 -91.40071106 132.8338623 C-91.37339947 128.87555901 -91.35825824 124.91729133 -91.34528303 120.95891857 C-91.32965756 116.82154948 -91.30286548 112.68425317 -91.2772522 108.54693604 C-91.23045407 100.71308464 -91.19371497 92.87921957 -91.16057932 85.04529977 C-91.12236524 76.12634748 -91.07295321 67.20746826 -91.02259517 58.28857756 C-90.91925993 39.94243766 -90.83040191 21.59625375 -90.75 3.25 C-97.35 3.25 -103.95 3.25 -110.75 3.25 C-110.75 0.94 -110.75 -1.37 -110.75 -3.75 C-97.55 -3.75 -84.35 -3.75 -70.75 -3.75 C-70.3125 6.4375 -70.3125 6.4375 -70.18188477 9.62182617 C-70.1247229 10.88216675 -70.1247229 10.88216675 -70.06640625 12.16796875 C-70.01141968 13.44837036 -70.01141968 13.44837036 -69.95532227 14.75463867 C-69.74468906 17.31454594 -69.30158464 19.74333243 -68.75 22.25 C-68.36521484 21.44949219 -68.36521484 21.44949219 -67.97265625 20.6328125 C-61.73160615 8.48693049 -52.60885089 -0.53640684 -39.6875 -5.125 C-25.92494125 -8.95150582 -12.21699815 -7.61741281 0 0 Z " fill="#151515" transform="translate(695.75,716.75)"/>
<path d="M0 0 C15.17467436 13.98450382 23.01625821 34.59043471 23.99316406 54.81958008 C24.80825936 82.47865261 19.10617213 105.93893696 -0.30859375 126.54296875 C-20.47885422 145.59730886 -43.11756813 150.1421127 -70.00292969 149.38134766 C-88.16724767 148.39236997 -107.82869234 136.50760338 -120.16015625 123.59375 C-134.47431065 106.30338528 -140.30679684 86.59138074 -140.42797852 64.40771484 C-140.43942228 62.95741968 -140.45975174 61.50716406 -140.48950195 60.05712891 C-140.96256623 36.90076476 -132.69242138 17.47494165 -116.7265625 0.6796875 C-83.40571735 -30.91020466 -33.96615393 -28.4917555 0 0 Z M-99.1328125 4.2109375 C-101.43146043 7.75181088 -103.3325447 11.39544455 -105.1328125 15.2109375 C-105.51308594 16.00242187 -105.89335937 16.79390625 -106.28515625 17.609375 C-109.47251579 24.85009365 -110.78071514 32.46006094 -112.1328125 40.2109375 C-112.30627197 41.1405127 -112.47973145 42.07008789 -112.65844727 43.02783203 C-116.51647335 68.91612027 -113.76527981 102.45866048 -98.1328125 124.2109375 C-90.78580457 133.56700748 -79.61694997 140.26920836 -67.7421875 141.99609375 C-51.68733955 143.31797494 -37.28548559 140.8118199 -24.73046875 130.17578125 C-10.8144237 117.04699998 -4.70693038 97.23236463 -3.84594727 78.40161133 C-3.72031547 74.06254708 -3.71067834 69.72676736 -3.74169922 65.38623047 C-3.75779406 62.71399922 -3.74175379 60.04327974 -3.72265625 57.37109375 C-3.69804889 37.64373597 -7.04050949 18.40456867 -19.1328125 2.2109375 C-19.60847656 1.56640625 -20.08414063 0.921875 -20.57421875 0.2578125 C-26.7100795 -6.85530023 -37.9064966 -12.31745992 -47.1328125 -13.7890625 C-51.00520759 -14.05307289 -54.8773255 -14.06593991 -58.7578125 -14.1015625 C-59.78777344 -14.13056641 -60.81773437 -14.15957031 -61.87890625 -14.18945312 C-76.88382871 -14.31213488 -89.68898453 -7.34926629 -99.1328125 4.2109375 Z " fill="#141414" transform="translate(538.1328125,683.7890625)"/>
<path d="M0 0 C13.86 0 27.72 0 42 0 C42.33 28.05 42.66 56.1 43 85 C45.64 81.37 48.28 77.74 51 74 C61.45320277 64.37205008 72.45578256 59.63065752 86.6171875 59.7890625 C96.81000764 60.42464251 105.43831866 64.8289062 112.3125 72.375 C118.73003543 80.44580633 121.32453277 89.23329962 121.22705078 99.41381836 C121.22734283 100.2243869 121.22763489 101.03495544 121.22793579 101.87008667 C121.22655184 104.52678448 121.21103505 107.18319544 121.1953125 109.83984375 C121.19157904 111.69071805 121.18873364 113.54159433 121.18673706 115.39247131 C121.17912682 120.24713668 121.15950087 125.10168104 121.1373291 129.95629883 C121.11681432 134.91681278 121.10772333 139.87734642 121.09765625 144.83789062 C121.07625241 154.55864671 121.04214813 164.27931326 121 174 C122.26457031 173.97679687 123.52914063 173.95359375 124.83203125 173.9296875 C126.4921816 173.91092874 128.15233833 173.89272865 129.8125 173.875 C130.64587891 173.85824219 131.47925781 173.84148437 132.33789062 173.82421875 C133.14033203 173.81777344 133.94277344 173.81132813 134.76953125 173.8046875 C135.50792236 173.79421387 136.24631348 173.78374023 137.00708008 173.77294922 C139 174 139 174 142 176 C142 177.65 142 179.3 142 181 C121.87 181 101.74 181 81 181 C81 178.69 81 176.38 81 174 C81.97582031 173.89042969 82.95164062 173.78085937 83.95703125 173.66796875 C85.22933594 173.50941406 86.50164062 173.35085938 87.8125 173.1875 C89.07707031 173.03667969 90.34164063 172.88585937 91.64453125 172.73046875 C95.58732916 171.9129103 95.58732916 171.9129103 98 169 C99.66830025 164.71759034 100.25890526 161.12676339 100.29052734 156.54248047 C100.30328705 155.28031708 100.31604675 154.01815369 100.32919312 152.71774292 C100.3322524 151.35089269 100.33447929 149.98404038 100.3359375 148.6171875 C100.34237556 147.19719309 100.34910465 145.77719998 100.35610962 144.35720825 C100.36805913 141.38328992 100.37179316 138.4094875 100.37060547 135.43554688 C100.37040311 131.65656735 100.39762847 127.87834687 100.43214989 124.09954643 C100.45458592 121.16523956 100.45843786 118.23111002 100.45738602 115.29672623 C100.45971991 113.90549241 100.46841611 112.51425201 100.48405075 111.1231041 C100.60019975 99.71489573 99.28151784 88.64846559 91.66796875 79.625 C86.46957089 74.56051871 81.7011349 73.72883448 74.5 73.5 C68.3239901 73.69567556 63.94906817 74.26445601 59 78 C58.24074219 78.55945313 57.48148438 79.11890625 56.69921875 79.6953125 C47.93805369 86.77880765 44.54145337 95.0690105 43 106 C42.67934958 111.28277912 42.62777781 116.56111546 42.5859375 121.8515625 C42.56719053 123.36185726 42.5476146 124.87214193 42.5272522 126.38241577 C42.47629716 130.32450365 42.43647749 134.26662535 42.39910889 138.2088623 C42.35883726 142.24479282 42.30785156 146.28058711 42.2578125 150.31640625 C42.16148798 158.21084385 42.07694666 166.10534984 42 174 C43.27617188 173.97679687 44.55234375 173.95359375 45.8671875 173.9296875 C47.5364525 173.91093171 49.2057238 173.89273131 50.875 173.875 C51.71675781 173.85824219 52.55851562 173.84148437 53.42578125 173.82421875 C54.23144531 173.81777344 55.03710938 173.81132813 55.8671875 173.8046875 C56.61081543 173.79421387 57.35444336 173.78374023 58.12060547 173.77294922 C60 174 60 174 62 176 C62 177.65 62 179.3 62 181 C41.54 181 21.08 181 0 181 C0 178.69 0 176.38 0 174 C0.96421875 173.90203125 1.9284375 173.8040625 2.921875 173.703125 C4.81679687 173.47882813 4.81679687 173.47882813 6.75 173.25 C8.62945313 173.04117188 8.62945313 173.04117188 10.546875 172.828125 C14.38837494 171.90686031 15.66128289 171.1255752 18 168 C19.92249256 164.05289235 20.25738047 160.84601214 20.2784729 156.47636414 C20.28963638 155.15688278 20.30079987 153.83740143 20.31230164 152.47793579 C20.3146664 151.02264433 20.31684208 149.56735255 20.31884766 148.11206055 C20.3281492 146.57439142 20.33831821 145.03672734 20.34928894 143.49906921 C20.37657756 139.33008745 20.39173497 135.16113946 20.40471697 130.99209189 C20.42035247 126.63318241 20.44714137 122.27434183 20.4727478 117.91548157 C20.51952814 109.66375363 20.55627586 101.41201271 20.58942068 93.16021997 C20.62764731 83.76483511 20.67705607 74.36951948 20.72740483 64.97419298 C20.83071361 45.64951185 20.91958082 26.32478901 21 7 C14.07 7 7.14 7 0 7 C0 4.69 0 2.38 0 0 Z " fill="#151515" transform="translate(1173,650)"/>
<path d="M0 0 C-0.03609375 -0.95132813 -0.0721875 -1.90265625 -0.109375 -2.8828125 C0 -6 0 -6 1.75 -7.875 C4 -9 4 -9 8 -9 C8 7.17 8 23.34 8 40 C5.03 40 2.06 40 -1 40 C-1.11214844 38.45892578 -1.11214844 38.45892578 -1.2265625 36.88671875 C-2.24901077 25.32647942 -5.05664383 15.735196 -13.875 7.56640625 C-26.35834963 -1.63547463 -40.02883918 -2.31942595 -55 -1 C-59.4051461 -0.13084614 -63.18727014 1.64565566 -67 4 C-67.61746094 4.3609375 -68.23492188 4.721875 -68.87109375 5.09375 C-73.63913615 8.42305641 -76.27646767 13.59470925 -78 19 C-79.11676298 27.01156053 -78.41145265 34.12161659 -74 41 C-71.85484511 43.72889272 -71.85484511 43.72889272 -69 46 C-68.38511719 46.51949219 -67.77023437 47.03898438 -67.13671875 47.57421875 C-61.50684604 52.15427973 -55.7722896 55.36775111 -49.1875 58.375 C-48.19137695 58.84123779 -47.19525391 59.30747559 -46.16894531 59.7878418 C-39.5611271 62.86698449 -32.90726821 65.84226569 -26.25 68.8125 C-9.854555 76.15640933 5.64185424 84.57281268 13 102 C15.93155115 113.58066659 15.05936536 126.65956128 9 137 C-0.36315205 149.78907357 -13.11019669 157.52281396 -28.76049805 160.53051758 C-53.43315874 164.10618466 -74.07682616 159.10196062 -96 148 C-95.96519531 148.62648438 -95.93039062 149.25296875 -95.89453125 149.8984375 C-95.86746094 150.71570313 -95.84039063 151.53296875 -95.8125 152.375 C-95.77769531 153.18710937 -95.74289062 153.99921875 -95.70703125 154.8359375 C-95.80371094 155.55007813 -95.90039062 156.26421875 -96 157 C-99 159 -99 159 -104 159 C-104 140.19 -104 121.38 -104 102 C-101.03 102 -98.06 102 -95 102 C-94.86464844 103.0415625 -94.72929688 104.083125 -94.58984375 105.15625 C-92.4363256 120.09211039 -88.17457571 135.08695538 -76 145 C-64.47447986 152.26807207 -53.21677322 154.50560714 -39.671875 152.6875 C-37.74855126 152.24967021 -35.87130495 151.62376832 -34 151 C-33.21238281 150.75507812 -32.42476562 150.51015625 -31.61328125 150.2578125 C-24.06600316 147.64573769 -17.97446343 143.54587808 -13.55078125 136.78515625 C-9.90445324 129.0958821 -9.25007534 119.38140549 -11.8828125 111.28515625 C-13.07575746 108.97431916 -14.38293028 107.03384027 -16 105 C-16.43828125 104.4121875 -16.8765625 103.824375 -17.328125 103.21875 C-28.67251921 90.08313565 -50.18027748 83.66684756 -65.57373047 76.86230469 C-74.63684015 72.85358597 -82.74725852 68.95225125 -90 62 C-90.65355469 61.37480469 -91.30710937 60.74960937 -91.98046875 60.10546875 C-100.00453214 51.70501006 -102.72762438 43.04359171 -102.51928711 31.63330078 C-101.99492144 20.48202559 -98.11217088 11.78567484 -90 4 C-63.85739682 -17.09289199 -28.83526443 -12.59181853 0 0 Z " fill="#151515" transform="translate(1136,672)"/>
<path d="M0 0 C7.01759199 5.8739844 11.4918437 11.59544292 12.5078125 20.83984375 C12.84769137 27.92804219 12.98067297 34.37477025 8.07421875 39.89453125 C-1.30677011 48.40341813 -15.82058871 48.34491786 -27.76171875 48.1875 C-29.00708405 48.18325516 -30.25244934 48.17901031 -31.53555298 48.17463684 C-35.4575292 48.15803567 -39.37896411 48.1204189 -43.30078125 48.08203125 C-45.98305981 48.06523811 -48.66535274 48.0530692 -51.34765625 48.04101562 C-57.87387815 48.00819324 -64.39979101 47.95818325 -70.92578125 47.89453125 C-70.62236356 50.93793117 -70.31443175 53.98076149 -70.00390625 57.0234375 C-69.91898926 57.87989868 -69.83407227 58.73635986 -69.74658203 59.61877441 C-68.42981339 72.42034988 -64.77806026 86.89897216 -54.92578125 95.89453125 C-44.69736131 101.92046667 -35.4157071 104.64040319 -23.6015625 102.2109375 C-10.54567967 98.5565034 -3.0294427 91.09645892 4.07421875 79.89453125 C6.38421875 80.55453125 8.69421875 81.21453125 11.07421875 81.89453125 C5.73174281 94.19763689 -1.79493151 102.79394921 -14.38671875 107.890625 C-27.71790923 112.51889545 -46.19474 113.74267471 -59.33984375 108.2109375 C-60.61988281 107.55931641 -60.61988281 107.55931641 -61.92578125 106.89453125 C-62.92351563 106.40855469 -63.92125 105.92257812 -64.94921875 105.421875 C-76.61158342 99.20880163 -84.37181337 90.81434271 -89.92578125 78.89453125 C-90.50328125 77.71890625 -91.08078125 76.54328125 -91.67578125 75.33203125 C-98.37616579 56.90597376 -96.3601385 35.01263552 -88.31640625 17.36328125 C-81.10955343 4.27193392 -71.44419881 -4.94288288 -57.05078125 -9.48046875 C-37.11869334 -15.11238548 -17.01575589 -12.24498321 0 0 Z " fill="#151515" transform="translate(835.92578125,722.10546875)"/>
<path d="M0 0 C0.70511719 0.52078125 1.41023438 1.0415625 2.13671875 1.578125 C2.85214844 2.07828125 3.56757812 2.5784375 4.3046875 3.09375 C11.31484655 8.51248458 15.43415141 15.62477252 16.6796875 24.40625 C16.92029852 30.93526246 16.84789359 36.73497076 12.75390625 42.06640625 C2.90350532 51.27438973 -12.33756665 50.73053608 -24.89453125 50.67578125 C-26.12619019 50.6743663 -27.35784912 50.67295135 -28.62683105 50.67149353 C-32.53900641 50.66592112 -36.45112336 50.65337367 -40.36328125 50.640625 C-43.02473875 50.63503982 -45.68619569 50.63104416 -48.34765625 50.62695312 C-54.85288432 50.61596072 -61.35807861 50.59925014 -67.86328125 50.578125 C-67.4209872 53.90758725 -66.96550073 57.23512185 -66.5078125 60.5625 C-66.32224792 61.96121338 -66.32224792 61.96121338 -66.13293457 63.38818359 C-64.21806775 77.17522473 -60.29871668 91.33125122 -48.890625 100.29296875 C-39.74182237 106.09249874 -29.94785825 106.95432444 -19.46484375 104.91796875 C-8.46936981 101.95764884 -0.90876608 96.19143694 5.13671875 86.578125 C5.8227168 85.25463382 6.49523259 83.92375412 7.13671875 82.578125 C9.11671875 82.908125 11.09671875 83.238125 13.13671875 83.578125 C14.13671875 86.578125 14.13671875 86.578125 13.31640625 88.62890625 C6.40197055 100.61530826 -2.34913121 108.52387999 -15.86328125 112.578125 C-28.84257533 115.51720527 -45.87368771 115.56365624 -57.86328125 109.578125 C-58.81074219 109.13082031 -59.75820312 108.68351563 -60.734375 108.22265625 C-75.078545 100.96298812 -83.82468173 89.80715051 -88.86328125 74.578125 C-90.82373827 67.78863805 -91.18313117 61.30707935 -91.11328125 54.265625 C-91.0987793 52.7350647 -91.0987793 52.7350647 -91.08398438 51.17358398 C-90.77842505 32.04709812 -84.71723116 15.96473273 -70.80078125 2.453125 C-51.65758852 -13.9461025 -20.55141449 -13.81724981 0 0 Z " fill="#151515" transform="translate(1424.86328125,719.421875)"/>
<path d="M0 0 C8.70394502 7.25930684 14.50156596 15.94755733 16.6875 27.25 C16.77666797 29.85866952 16.81380632 32.43968285 16.80102539 35.04785156 C16.80117142 35.82872131 16.80131744 36.60959106 16.8014679 37.41412354 C16.80077242 39.98965249 16.79299712 42.56510871 16.78515625 45.140625 C16.78329077 46.92852743 16.78186748 48.71643037 16.78086853 50.5043335 C16.77705357 55.20610978 16.76723198 59.90785508 16.75616455 64.60961914 C16.74592849 69.40901266 16.7413662 74.2084112 16.73632812 79.0078125 C16.72560881 88.4218886 16.70854463 97.83594172 16.6875 107.25 C17.95207031 107.21519531 19.21664062 107.18039062 20.51953125 107.14453125 C22.17967423 107.11639323 23.83983156 107.08909309 25.5 107.0625 C26.33337891 107.03736328 27.16675781 107.01222656 28.02539062 106.98632812 C28.82783203 106.97666016 29.63027344 106.96699219 30.45703125 106.95703125 C31.19542236 106.9413208 31.93381348 106.92561035 32.69458008 106.90942383 C35.29575244 107.35394612 36.16436044 108.11531735 37.6875 110.25 C37.6875 111.57 37.6875 112.89 37.6875 114.25 C16.8975 114.25 -3.8925 114.25 -25.3125 114.25 C-25.3125 111.94 -25.3125 109.63 -25.3125 107.25 C-23.99185547 107.08564453 -23.99185547 107.08564453 -22.64453125 106.91796875 C-20.90236328 106.68013672 -20.90236328 106.68013672 -19.125 106.4375 C-17.97644531 106.28667969 -16.82789063 106.13585937 -15.64453125 105.98046875 C-11.66435827 105.10791031 -8.52902125 104.06852961 -6.19320679 100.57681274 C-5.00087439 97.4266903 -5.04267703 94.71291683 -5.02197266 91.34521484 C-5.01525543 90.65843658 -5.00853821 89.97165833 -5.00161743 89.2640686 C-4.98264174 86.99628426 -4.97871263 84.72879629 -4.9765625 82.4609375 C-4.97013115 80.87635173 -4.96340254 79.29176714 -4.95639038 77.70718384 C-4.94441647 74.38337455 -4.94070936 71.05966917 -4.94189453 67.73583984 C-4.94209702 63.49927062 -4.91486934 59.26337754 -4.88035011 55.026968 C-4.85798213 51.75132255 -4.8540601 48.4758368 -4.85511398 45.20012283 C-4.85277002 43.63977366 -4.84401517 42.07941926 -4.82844925 40.51914597 C-4.73385499 30.05195683 -5.74555333 21.91515059 -11.4375 12.875 C-17.35956709 7.46789526 -24.4788343 5.41104631 -32.4453125 5.73828125 C-41.00755408 7.26641973 -49.20257192 12.19281032 -54.3125 19.25 C-61.50152115 31.19278224 -62.61760582 42.16775627 -62.7265625 55.78515625 C-62.74530476 57.27446021 -62.76488037 58.76375388 -62.7852478 60.2530365 C-62.83625254 64.14417419 -62.87604611 68.03534619 -62.91339111 71.92663574 C-62.953631 75.90885686 -63.00463144 79.89093919 -63.0546875 83.87304688 C-63.15107113 91.66526885 -63.23559414 99.45755884 -63.3125 107.25 C-62.12011719 107.20359375 -60.92773438 107.1571875 -59.69921875 107.109375 C-58.13283753 107.07185689 -56.56642924 107.03545677 -55 107 C-54.21431641 106.96648437 -53.42863281 106.93296875 -52.61914062 106.8984375 C-46.81576827 106.79965669 -46.81576827 106.79965669 -44.26953125 109.078125 C-43.3125 111.25 -43.3125 111.25 -43.3125 114.25 C-63.4425 114.25 -83.5725 114.25 -104.3125 114.25 C-104.3125 111.94 -104.3125 109.63 -104.3125 107.25 C-103.10013672 107.08564453 -103.10013672 107.08564453 -101.86328125 106.91796875 C-100.79464844 106.75941406 -99.72601562 106.60085938 -98.625 106.4375 C-97.56925781 106.28667969 -96.51351562 106.13585937 -95.42578125 105.98046875 C-92.10544805 105.20141943 -90.0007263 104.3450275 -87.3125 102.25 C-84.79674474 97.67938781 -85.00638814 93.12961542 -84.99365234 88.0534668 C-84.98360672 87.13590103 -84.9735611 86.21833527 -84.96321106 85.27296448 C-84.93238802 82.24838878 -84.91534626 79.22390157 -84.8984375 76.19921875 C-84.87972516 74.09885395 -84.8601517 71.99849667 -84.8397522 69.89814758 C-84.78843207 64.37609282 -84.7488056 58.85401369 -84.71160889 53.33184814 C-84.67156859 47.69447806 -84.62047633 42.05720936 -84.5703125 36.41992188 C-84.4735545 25.36334539 -84.39017083 14.30672706 -84.3125 3.25 C-90.9125 3.25 -97.5125 3.25 -104.3125 3.25 C-104.3125 0.94 -104.3125 -1.37 -104.3125 -3.75 C-91.1125 -3.75 -77.9125 -3.75 -64.3125 -3.75 C-63.6525 4.17 -62.9925 12.09 -62.3125 20.25 C-61.3225 18.6 -60.3325 16.95 -59.3125 15.25 C-52.32440772 4.41359448 -43.16168736 -3.62178364 -30.203125 -6.421875 C-19.2784486 -7.6619734 -9.2117158 -6.50866406 0 0 Z " fill="#161616" transform="translate(971.3125,716.75)"/>
<path d="M0 0 C9.36346807 5.21923761 14.20461142 12.9208294 17.16796875 23.13647461 C19.18012892 31.04266675 19.82375498 38.48205784 19.72265625 46.62109375 C19.70960449 48.3844104 19.70960449 48.3844104 19.69628906 50.18334961 C19.42514212 66.32881663 17.37116145 83.39873227 5.34765625 95.30859375 C-4.42586441 102.47684619 -13.81445442 103.36861486 -25.65234375 102.30859375 C-28.88076044 101.51815544 -31.07858468 100.38858609 -33.65234375 98.30859375 C-34.26207031 97.82261719 -34.87179687 97.33664062 -35.5 96.8359375 C-45.83270034 87.5562512 -49.05513166 73.32808277 -49.77832031 59.98413086 C-50.40485847 41.04721332 -49.36908624 21.42559572 -35.83984375 6.74609375 C-25.75402087 -2.43358098 -12.61683661 -5.77855116 0 0 Z " fill="#FDFDFD" transform="translate(675.65234375,723.69140625)"/>
<path d="M0 0 C4.20049007 3.5879186 6.65725844 6.37231472 7.375 11.875 C6.90139376 15.82171864 5.44329387 17.90995187 3 21 C-0.80367424 22.90183712 -4.88844143 22.8629197 -9 22 C-11.71003388 19.76541066 -13.25658686 17.01859532 -15 14 C-16.03090084 12.38889367 -17.07249877 10.78457899 -18.125 9.1875 C-18.58132813 8.45917969 -19.03765625 7.73085938 -19.5078125 6.98046875 C-21.90924383 3.79322873 -24.22912821 2.25695726 -28 1 C-32.70490498 0.54760529 -36.32411612 0.87375065 -40.3671875 3.51171875 C-52.72745798 14.7778983 -50.94428645 42.13880158 -52 57 C-41.44 57 -30.88 57 -20 57 C-20 59.31 -20 61.62 -20 64 C-30.56 64 -41.12 64 -52 64 C-52 98.32 -52 132.64 -52 168 C-44.08 168 -36.16 168 -28 168 C-25 172 -25 172 -25 175 C-47.44 175 -69.88 175 -93 175 C-93 172.69 -93 170.38 -93 168 C-91.42798828 167.72736328 -91.42798828 167.72736328 -89.82421875 167.44921875 C-88.44519905 167.19592942 -87.06629881 166.94198904 -85.6875 166.6875 C-84.65206055 166.51057617 -84.65206055 166.51057617 -83.59570312 166.33007812 C-80.77472788 165.79859004 -78.44811206 165.31669019 -76.08203125 163.64453125 C-74.10538149 160.64030905 -73.87479664 157.47826945 -73.84178162 153.95037842 C-73.8319928 153.15394928 -73.82220398 152.35752014 -73.81211853 151.53695679 C-73.80636307 150.67236847 -73.8006076 149.80778015 -73.79467773 148.91699219 C-73.78477814 147.99957245 -73.77487854 147.08215271 -73.76467896 146.13693237 C-73.73311158 143.10693943 -73.7083253 140.07693081 -73.68359375 137.046875 C-73.66302012 134.94508458 -73.64202353 132.84329826 -73.62062073 130.74151611 C-73.56544238 125.21121543 -73.51601437 119.68087767 -73.46777344 114.1505127 C-73.41752751 108.50655825 -73.36185757 102.86265761 -73.30664062 97.21875 C-73.19911083 86.1458776 -73.09815558 75.07295947 -73 64 C-79.27 64 -85.54 64 -92 64 C-92 61.69 -92 59.38 -92 57 C-85.4 57 -78.8 57 -72 57 C-72.0825 53.82375 -72.165 50.6475 -72.25 47.375 C-72.39071676 30.81647525 -67.75452834 16.2691534 -56.19140625 4.00390625 C-40.79979701 -10.07077386 -17.40127016 -10.7560249 0 0 Z " fill="#161616" transform="translate(1633,656)"/>
<path d="M0 0 C13.86 0 27.72 0 42 0 C42 57.42 42 114.84 42 174 C48.27 174 54.54 174 61 174 C64 178 64 178 64 181 C42.88 181 21.76 181 0 181 C0 178.69 0 176.38 0 174 C0.96421875 173.90203125 1.9284375 173.8040625 2.921875 173.703125 C4.81679687 173.47882813 4.81679687 173.47882813 6.75 173.25 C8.62945313 173.04117188 8.62945313 173.04117188 10.546875 172.828125 C14.38837494 171.90686031 15.66128289 171.1255752 18 168 C19.92249256 164.05289235 20.25738047 160.84601214 20.2784729 156.47636414 C20.28963638 155.15688278 20.30079987 153.83740143 20.31230164 152.47793579 C20.3146664 151.02264433 20.31684208 149.56735255 20.31884766 148.11206055 C20.3281492 146.57439142 20.33831821 145.03672734 20.34928894 143.49906921 C20.37657756 139.33008745 20.39173497 135.16113946 20.40471697 130.99209189 C20.42035247 126.63318241 20.44714137 122.27434183 20.4727478 117.91548157 C20.51952814 109.66375363 20.55627586 101.41201271 20.58942068 93.16021997 C20.62764731 83.76483511 20.67705607 74.36951948 20.72740483 64.97419298 C20.83071361 45.64951185 20.91958082 26.32478901 21 7 C14.07 7 7.14 7 0 7 C0 4.69 0 2.38 0 0 Z " fill="#161616" transform="translate(1460,650)"/>
<path d="M0 0 C7.06532211 9.14335803 9.07498897 16.04666368 8.125 27.75 C6.94372224 31.64693261 5.04209433 34.03119633 1.8125 36.5625 C-4.12369626 39.18547044 -9.63969845 40.04476637 -16.08203125 39.98046875 C-16.8474675 39.98001053 -17.61290375 39.97955231 -18.40153503 39.9790802 C-20.01257894 39.97607569 -21.62362041 39.96824383 -23.23461914 39.95581055 C-25.67019228 39.9376292 -28.10538183 39.93530083 -30.54101562 39.93554688 C-38.3842557 39.91718286 -46.08129406 39.73504878 -53.875 38.75 C-53.48861893 25.51644848 -51.01546509 11.4671609 -40.921875 1.8984375 C-28.67106569 -7.59360177 -12.89252397 -10.08980136 0 0 Z " fill="#FBFBFB" transform="translate(1410.875,723.25)"/>
<path d="M0 0 C5.86400428 4.47082831 8.7101239 10.95849669 10.99609375 17.81640625 C11.73114018 24.60052333 11.15800476 30.25001134 6.99609375 35.81640625 C-0.92927807 42.50894245 -9.51156404 42.10912984 -19.37890625 42.00390625 C-21.23854004 41.99423828 -21.23854004 41.99423828 -23.13574219 41.984375 C-32.4502272 41.9067745 -41.7194685 41.55916127 -51.00390625 40.81640625 C-51.82086601 28.22160993 -49.2899049 16.61766855 -41.00390625 6.81640625 C-30.23727082 -4.85518345 -14.07077758 -8.31081015 0 0 Z " fill="#FBFBFB" transform="translate(816.00390625,721.18359375)"/>
<path d="M0 0 C3.08315385 -0.08733513 6.16598827 -0.14050127 9.25 -0.1875 C10.12269531 -0.21263672 10.99539063 -0.23777344 11.89453125 -0.26367188 C18.32836482 -0.33734173 18.32836482 -0.33734173 21.58203125 1.296875 C23 3 23 3 23.4375 6.4375 C22.99490804 10.04146306 22.46704919 11.43015709 20 14 C21.2375 14.7734375 21.2375 14.7734375 22.5 15.5625 C25 18 25 18 25.5625 21.5 C24.92519445 25.46545673 24.1376325 26.60063397 21 29 C18.65147472 30.17426264 17.26225935 30.11508173 14.6484375 30.09765625 C13.79765625 30.09443359 12.946875 30.09121094 12.0703125 30.08789062 C11.18085937 30.07951172 10.29140625 30.07113281 9.375 30.0625 C8.4778125 30.05798828 7.580625 30.05347656 6.65625 30.04882812 C4.43743352 30.03702591 2.21874982 30.02056155 0 30 C1.32 29.67 2.64 29.34 4 29 C4 19.76 4 10.52 4 1 C2.68 0.67 1.36 0.34 0 0 Z " fill="#202020" transform="translate(684,933)"/>
<path d="M0 0 C3.22886009 -0.11667875 6.45717445 -0.18740546 9.6875 -0.25 C11.05551758 -0.30027344 11.05551758 -0.30027344 12.45117188 -0.3515625 C16.76469175 -0.41430461 19.30966207 -0.39893901 23.109375 1.796875 C25 4 25 4 25.5625 7.5 C24.92152845 11.48826743 24.10034974 12.53795756 21 15 C20.34 15.66 19.68 16.32 19 17 C20.09646058 18.79639296 21.20245148 20.58697154 22.3125 22.375 C23.23482422 23.87160156 23.23482422 23.87160156 24.17578125 25.3984375 C25.90437775 28.19826812 25.90437775 28.19826812 29 30 C23.97213622 31.05849764 23.97213622 31.05849764 21 30 C18.84835647 27.03600126 17.29887469 24.0335927 15.73828125 20.72265625 C15.16464844 19.82417969 14.59101562 18.92570313 14 18 C12.35 17.67 10.7 17.34 9 17 C9 20.96 9 24.92 9 29 C10.32 29.33 11.64 29.66 13 30 C8.71 30 4.42 30 0 30 C1.32 29.67 2.64 29.34 4 29 C4 19.76 4 10.52 4 1 C2.68 0.67 1.36 0.34 0 0 Z " fill="#2D2D2D" transform="translate(1161,933)"/>
<path d="M0 0 C3.22886009 -0.11667875 6.45717445 -0.18740546 9.6875 -0.25 C11.05551758 -0.30027344 11.05551758 -0.30027344 12.45117188 -0.3515625 C16.76469175 -0.41430461 19.30966207 -0.39893901 23.109375 1.796875 C25 4 25 4 25.5625 7.5 C24.92152845 11.48826743 24.10034974 12.53795756 21 15 C20.34 15.66 19.68 16.32 19 17 C20.09646058 18.79639296 21.20245148 20.58697154 22.3125 22.375 C23.23482422 23.87160156 23.23482422 23.87160156 24.17578125 25.3984375 C25.90437775 28.19826812 25.90437775 28.19826812 29 30 C23.97213622 31.05849764 23.97213622 31.05849764 21 30 C18.84835647 27.03600126 17.29887469 24.0335927 15.73828125 20.72265625 C15.16464844 19.82417969 14.59101562 18.92570313 14 18 C12.35 17.67 10.7 17.34 9 17 C9 20.96 9 24.92 9 29 C9.99 29.33 10.98 29.66 12 30 C8.04 30 4.08 30 0 30 C1.32 29.67 2.64 29.34 4 29 C4 19.76 4 10.52 4 1 C2.68 0.67 1.36 0.34 0 0 Z " fill="#2D2D2D" transform="translate(862,933)"/>
<path d="M0 0 C2.97 0 5.94 0 9 0 C9 10.56 9 21.12 9 32 C10.485 32.495 10.485 32.495 12 33 C9.69 33 7.38 33 5 33 C4.67 32.34 4.34 31.68 4 31 C3.46375 31.495 2.9275 31.99 2.375 32.5 C-0.74008151 34.4674199 -2.37170989 34.5923739 -6 34 C-8.57285724 31.827365 -10.48996919 30.02006162 -12 27 C-12.50872093 20.89534886 -12.06705978 17.88047174 -8 13 C-4.31282562 10.54188375 -2.35654296 10.68881836 2 11 C2.99 11.66 3.98 12.32 5 13 C5 9.04 5 5.08 5 1 C3.35 1 1.7 1 0 1 C0 0.67 0 0.34 0 0 Z " fill="#1B1B1B" transform="translate(954,930)"/>
<path d="M0 0 C3 0.5625 3 0.5625 5.875 2.375 C8.96668882 7.01253323 9.01577718 11.14237645 8 16.5625 C6.32670276 19.73069146 4.25205891 21.93647054 1 23.5625 C-3.32816129 23.84477139 -4.98936074 23.56781963 -9 21.5625 C-9 24.8625 -9 28.1625 -9 31.5625 C-7.35 31.5625 -5.7 31.5625 -4 31.5625 C-4 31.8925 -4 32.2225 -4 32.5625 C-7.96 32.5625 -11.92 32.5625 -16 32.5625 C-15.34 31.9025 -14.68 31.2425 -14 30.5625 C-13.62731113 27.65061755 -13.62731113 27.65061755 -13.5859375 24.2421875 C-13.54726562 22.98535156 -13.50859375 21.72851562 -13.46875 20.43359375 C-13.4378125 19.11488281 -13.406875 17.79617188 -13.375 16.4375 C-13.33681971 15.09763082 -13.29776794 13.75778617 -13.2578125 12.41796875 C-13.1632797 9.13295381 -13.07772844 5.84794862 -13 2.5625 C-13.99 2.2325 -14.98 1.9025 -16 1.5625 C-13.69 1.5625 -11.38 1.5625 -9 1.5625 C-8.67 2.5525 -8.34 3.5425 -8 4.5625 C-7.29875 3.9025 -6.5975 3.2425 -5.875 2.5625 C-3 0.5625 -3 0.5625 0 0 Z " fill="#292929" transform="translate(1232,940.4375)"/>
<path d="M0 0 C3.24992446 -0.05819424 6.49971435 -0.09366116 9.75 -0.125 C10.67039062 -0.14175781 11.59078125 -0.15851562 12.5390625 -0.17578125 C13.42851563 -0.18222656 14.31796875 -0.18867187 15.234375 -0.1953125 C16.05131836 -0.20578613 16.86826172 -0.21625977 17.70996094 -0.22705078 C20.28793619 0.02854804 21.82603319 0.60161996 24 2 C26 5 26 5 25.9375 8.4375 C24.8398083 12.60872846 23.56393264 13.7154278 20 16 C21.0841347 19.07171498 22.30498007 21.4574701 24.125 24.1875 C26 27 26 27 26 29 C26.99 29.33 27.98 29.66 29 30 C25.875 30.5625 25.875 30.5625 22 30 C18.97334451 26.74105041 16.73313152 22.91484579 15.14453125 18.765625 C14.76683594 18.18296875 14.38914062 17.6003125 14 17 C12.35 16.67 10.7 16.34 9 16 C9 20.29 9 24.58 9 29 C10.32 29.33 11.64 29.66 13 30 C9.04 30 5.08 30 1 30 C2.32 29.67 3.64 29.34 5 29 C5 19.76 5 10.52 5 1 C3.35 1 1.7 1 0 1 C0 0.67 0 0.34 0 0 Z " fill="#202020" transform="translate(990,933)"/>
<path d="M0 0 C3.5386994 1.65139305 4.81070153 2.71605229 7 6 C7.66624845 10.07463524 7.94496094 14.24356703 5.94921875 17.953125 C4.18683214 20.0950226 2.49210321 21.7539484 0 23 C-4.19491568 23.40335728 -6.5250009 23.24198067 -10.3125 21.3125 C-14.05309124 18.09385173 -14.80980879 15.82583564 -15.3125 11 C-14.94622233 7.4837344 -14.17542743 5.77554534 -12 3 C-8.06538376 -0.16955197 -4.97922113 -0.53348798 0 0 Z " fill="#FBFBFB" transform="translate(795,941)"/>
<path d="M0 0 C3.70390021 2.02666238 5.65363011 3.48044516 8 7 C8.4913517 12.20832803 7.88996237 15.61522951 5 20 C2.12721821 22.39398482 0.27332022 22.96024433 -3.4375 23.5 C-8.16675851 22.83624442 -9.65681791 21.34318209 -13 18 C-14.74221711 14.51556578 -14.58675154 10.80112955 -14 7 C-10.60242193 0.86407543 -6.79897031 -0.56658086 0 0 Z " fill="#F9F9F9" transform="translate(728,941)"/>
<path d="M0 0 C3.35365608 0.72478282 4.84243548 1.90552549 7.1328125 4.4609375 C7.73947422 7.40235029 7.60631239 10.22377024 7.4453125 13.2109375 C7.42275391 14.00371094 7.40019531 14.79648437 7.37695312 15.61328125 C7.31821721 17.5633137 7.22853904 19.51237062 7.1328125 21.4609375 C8.1228125 21.4609375 9.1128125 21.4609375 10.1328125 21.4609375 C10.1328125 20.4709375 10.1328125 19.4809375 10.1328125 18.4609375 C10.7928125 18.4609375 11.4528125 18.4609375 12.1328125 18.4609375 C11.1428125 20.9359375 11.1428125 20.9359375 10.1328125 23.4609375 C8.4828125 23.4609375 6.8328125 23.4609375 5.1328125 23.4609375 C4.8028125 22.4709375 4.4728125 21.4809375 4.1328125 20.4609375 C3.4315625 20.9559375 2.7303125 21.4509375 2.0078125 21.9609375 C-1.34040637 23.7078343 -3.1430038 24.01560316 -6.8671875 23.4609375 C-9.64605303 21.48648041 -10.66468188 20.27095998 -11.4921875 16.9609375 C-10.8671875 14.4609375 -10.8671875 14.4609375 -8.3671875 12.1484375 C-4.05519444 10.06944085 -1.58629203 10.13548202 3.1328125 10.4609375 C2.4728125 8.1509375 1.8128125 5.8409375 1.1328125 3.4609375 C-1.8371875 2.9659375 -1.8371875 2.9659375 -4.8671875 2.4609375 C-5.1971875 3.7809375 -5.5271875 5.1009375 -5.8671875 6.4609375 C-6.8571875 6.4609375 -7.8471875 6.4609375 -8.8671875 6.4609375 C-8.8671875 5.1409375 -8.8671875 3.8209375 -8.8671875 2.4609375 C-5.67500612 0.33281658 -3.76299318 0.1623252 0 0 Z " fill="#2D2D2D" transform="translate(1278.8671875,940.5390625)"/>
<path d="M0 0 C2.7421875 1.47265625 2.7421875 1.47265625 5 4 C5.60623628 6.94153462 5.47350278 9.76277927 5.3125 12.75 C5.28994141 13.54277344 5.26738281 14.33554687 5.24414062 15.15234375 C5.18540471 17.1023762 5.09572654 19.05143312 5 21 C5.99 21 6.98 21 8 21 C8.33 20.01 8.66 19.02 9 18 C8.67 19.65 8.34 21.3 8 23 C4.28400809 23.20086443 3.22791555 23.1519437 0 21 C-0.53625 21.33 -1.0725 21.66 -1.625 22 C-4.65696965 23.2766188 -6.74003936 23.41616519 -10 23 C-12.29419232 20.93522692 -12.88855141 19.49532706 -13.5625 16.5 C-13 14 -13 14 -10.5 11.6875 C-6.18800694 9.60850335 -3.71910453 9.67454452 1 10 C0.34 7.69 -0.32 5.38 -1 3 C-3.97 2.505 -3.97 2.505 -7 2 C-7.33 3.32 -7.66 4.64 -8 6 C-8.99 6 -9.98 6 -11 6 C-10.625 3.5625 -10.625 3.5625 -10 1 C-6.85154494 -0.57422753 -3.40781928 -0.66928343 0 0 Z " fill="#202020" transform="translate(930,941)"/>
<path d="M0 0 C2.31279611 1.15639806 4.17409828 2.17409828 6 4 C6.04080783 5.99958364 6.04254356 8.00045254 6 10 C3.11584117 11.44207941 0.58278472 11.09394887 -2.625 11.0625 C-3.81351563 11.05347656 -5.00203125 11.04445313 -6.2265625 11.03515625 C-7.14179687 11.02355469 -8.05703125 11.01195312 -9 11 C-8.01 13.97 -7.02 16.94 -6 20 C-4.72125 20.061875 -3.4425 20.12375 -2.125 20.1875 C-1.40570312 20.22230469 -0.68640625 20.25710938 0.0546875 20.29296875 C1.01761719 20.14794922 1.01761719 20.14794922 2 20 C2.66 19.01 3.32 18.02 4 17 C4.66 17 5.32 17 6 17 C4.63016497 20.16115776 4.0109362 20.9927092 1 23 C-5.94677871 23.67226891 -5.94677871 23.67226891 -9.9375 21.125 C-13.68164367 17.26739743 -13.32695621 13.89351787 -13.29296875 8.70703125 C-12.90428228 5.11556825 -11.68553733 3.36959176 -9 1 C-5.93570224 -0.53214888 -3.3834358 -0.22938548 0 0 Z " fill="#282828" transform="translate(907,941)"/>
<path d="M0 0 C3.18449782 0.05154763 4.33272985 0.357312 7.25 1.9375 C9.25 4.3125 9.25 4.3125 9.5625 7.5625 C9.459375 8.47 9.35625 9.3775 9.25 10.3125 C6.36584117 11.75457941 3.83278472 11.40644887 0.625 11.375 C-0.56351563 11.36597656 -1.75203125 11.35695313 -2.9765625 11.34765625 C-3.89179687 11.33605469 -4.80703125 11.32445312 -5.75 11.3125 C-5.09 14.2825 -4.43 17.2525 -3.75 20.3125 C2.31755731 20.79395231 2.31755731 20.79395231 7.8125 18.8125 C8.286875 18.3175 8.76125 17.8225 9.25 17.3125 C7.88016497 20.47365776 7.2609362 21.3052092 4.25 23.3125 C-0.11007907 23.80609386 -2.25460646 23.58771864 -6.125 21.4375 C-8.98352264 19.12345786 -9.62100637 18.45685775 -10.0234375 14.88671875 C-10.30028054 7.01798787 -10.30028054 7.01798787 -7.3125 3.1875 C-6.466875 2.56875 -5.62125 1.95 -4.75 1.3125 C-3.75 0.3125 -3.75 0.3125 0 0 Z " fill="#2E2E2E" transform="translate(1202.75,940.6875)"/>
<path d="M0 0 C2.875 1.125 2.875 1.125 5 3 C5.8125 6.1875 5.8125 6.1875 6 9 C2.36804504 11.42130331 0.61650652 11.21022785 -3.6875 11.125 C-4.86699219 11.10695313 -6.04648438 11.08890625 -7.26171875 11.0703125 C-8.16535156 11.04710937 -9.06898437 11.02390625 -10 11 C-8.68 13.97 -7.36 16.94 -6 20 C-3.03 20 -0.06 20 3 20 C3.33 19.01 3.66 18.02 4 17 C4.33 17.66 4.66 18.32 5 19 C2.2370627 21.88852536 0.83753367 22.9033615 -3.25 23.375 C-8.21442386 22.87855761 -9.55704915 21.52492587 -13 18 C-14.24300105 14.27099684 -14.6711674 10.86650786 -14 7 C-10.46892959 0.86015368 -6.88035828 -0.46646497 0 0 Z " fill="#242424" transform="translate(1036,941)"/>
<path d="M0 0 C3.18449782 0.05154763 4.33272985 0.357312 7.25 1.9375 C9.25 4.3125 9.25 4.3125 9.5625 7.5625 C9.459375 8.47 9.35625 9.3775 9.25 10.3125 C6.36584117 11.75457941 3.83278472 11.40644887 0.625 11.375 C-0.56351563 11.36597656 -1.75203125 11.35695313 -2.9765625 11.34765625 C-3.89179687 11.33605469 -4.80703125 11.32445312 -5.75 11.3125 C-5.09 14.2825 -4.43 17.2525 -3.75 20.3125 C2.31755731 20.79395231 2.31755731 20.79395231 7.8125 18.8125 C8.286875 18.3175 8.76125 17.8225 9.25 17.3125 C7.88016497 20.47365776 7.2609362 21.3052092 4.25 23.3125 C-0.11007907 23.80609386 -2.25460646 23.58771864 -6.125 21.4375 C-8.98352264 19.12345786 -9.62100637 18.45685775 -10.0234375 14.88671875 C-10.30028054 7.01798787 -10.30028054 7.01798787 -7.3125 3.1875 C-6.466875 2.56875 -5.62125 1.95 -4.75 1.3125 C-3.75 0.3125 -3.75 0.3125 0 0 Z " fill="#242424" transform="translate(1254.75,940.6875)"/>
<path d="M0 0 C3.3 0 6.6 0 10 0 C9.01 0.33 8.02 0.66 7 1 C7.80906755 3.31375405 8.62206917 5.62598948 9.4375 7.9375 C9.66759766 8.59685547 9.89769531 9.25621094 10.13476562 9.93554688 C11.11964592 13.22328622 11.11964592 13.22328622 13 16 C15.68902652 9.97658059 16.27170568 6.474138 15 0 C17.31 0 19.62 0 22 0 C21.34 0.66 20.68 1.32 20 2 C20.28875 2.84304688 20.5775 3.68609375 20.875 4.5546875 C21.24625 5.65039062 21.6175 6.74609375 22 7.875 C22.37125 8.96554687 22.7425 10.05609375 23.125 11.1796875 C24 14 24 14 24 16 C24.66 16 25.32 16 26 16 C26.12117187 15.41992188 26.24234375 14.83984375 26.3671875 14.2421875 C27.33735474 9.71971558 28.43397783 5.36249034 30 1 C29.01 0.67 28.02 0.34 27 0 C29.31 0 31.62 0 34 0 C33.34 0.33 32.68 0.66 32 1 C31.19004154 3.27029535 31.19004154 3.27029535 30.5625 6 C29.25883258 11.08829378 27.72648097 16.04095893 26 21 C24.68 21 23.36 21 22 21 C20.68 17.37 19.36 13.74 18 10 C16.35 13.96 14.7 17.92 13 22 C8.0616738 19.5308369 7.44335667 16.9740983 5.75 12.0625 C5.481875 11.33353516 5.21375 10.60457031 4.9375 9.85351562 C3.83722981 6.79128405 3 4.27640979 3 1 C2.01 0.67 1.02 0.34 0 0 Z " fill="#2F2F2F" transform="translate(805,942)"/>
<path d="M0 0 C3.4375 1 3.4375 1 5.140625 3.07421875 C6.75658921 6.71987295 6.77064889 9.90985676 6.625 13.8125 C6.60469727 14.85180664 6.60469727 14.85180664 6.58398438 15.91210938 C6.54888845 17.60841265 6.49508943 19.30431136 6.4375 21 C7.4275 21.33 8.4175 21.66 9.4375 22 C5.8075 22 2.1775 22 -1.5625 22 C-0.5725 21.34 0.4175 20.68 1.4375 20 C1.68640658 17.38944406 1.7647977 15.03905078 1.6875 12.4375 C1.68234375 11.73947266 1.6771875 11.04144531 1.671875 10.32226562 C1.90795624 6.87053521 1.90795624 6.87053521 0.4375 4 C-2.52054573 3.66659529 -2.52054573 3.66659529 -5.5625 4 C-7.98729736 7.63719605 -7.94912577 9.85703482 -8.1875 14.1875 C-8.26226563 15.45980469 -8.33703125 16.73210938 -8.4140625 18.04296875 C-8.46304687 19.01878906 -8.51203125 19.99460937 -8.5625 21 C-7.5725 21.33 -6.5825 21.66 -5.5625 22 C-9.1925 22 -12.8225 22 -16.5625 22 C-15.5725 21.34 -14.5825 20.68 -13.5625 20 C-13.05718134 18.07558585 -13.05718134 18.07558585 -13.05078125 15.8671875 C-13.01533203 15.06152344 -12.97988281 14.25585938 -12.94335938 13.42578125 C-12.92080078 12.58402344 -12.89824219 11.74226562 -12.875 10.875 C-12.84083984 10.02550781 -12.80667969 9.17601562 -12.77148438 8.30078125 C-12.68890827 6.20098895 -12.62403022 4.10051436 -12.5625 2 C-13.8825 1.67 -15.2025 1.34 -16.5625 1 C-13.9225 1 -11.2825 1 -8.5625 1 C-8.2325 1.66 -7.9025 2.32 -7.5625 3 C-7.046875 2.484375 -6.53125 1.96875 -6 1.4375 C-3.5625 0 -3.5625 0 0 0 Z " fill="#2F2F2F" transform="translate(1127.5625,941)"/>
<path d="M0 0 C2.8125 1.0625 2.8125 1.0625 4.8125 4.0625 C5.11328125 6.62109375 5.11328125 6.62109375 5.125 9.5 C5.15013672 10.92119141 5.15013672 10.92119141 5.17578125 12.37109375 C4.75382918 15.49716874 4.0400665 16.85029603 1.8125 19.0625 C-1.6875 19.625 -1.6875 19.625 -5.1875 19.0625 C-7.96602106 16.19434923 -8.18477638 14.08394852 -8.6875 10.125 C-8.55681369 7.00040916 -7.89371182 5.04006801 -6.0625 2.5 C-3.1875 0.0625 -3.1875 0.0625 0 0 Z " fill="#F4F4F4" transform="translate(1231.1875,942.9375)"/>
<path d="M0 0 C2.78696564 2.87986449 3.23711318 5.6280095 3.4375 9.5 C3.31640628 12.79705186 2.96091661 14.07092911 1.3125 17.0625 C-1 19 -1 19 -3.5625 19.5625 C-6 19 -6 19 -7.62890625 17.34375 C-9.36475016 14.37649545 -9.40043271 12.35819943 -9.375 8.9375 C-9.38273438 7.89464844 -9.39046875 6.85179687 -9.3984375 5.77734375 C-9 3 -9 3 -7.6640625 1.16015625 C-5.00824578 -0.69143428 -3.13070269 -0.52178378 0 0 Z " fill="#F9F9F9" transform="translate(956,943)"/>
<path d="M0 0 C2.31 0 4.62 0 7 0 C7.04898437 1.12019531 7.09796875 2.24039063 7.1484375 3.39453125 C7.22347856 4.86721203 7.29902582 6.33986707 7.375 7.8125 C7.4059375 8.55048828 7.436875 9.28847656 7.46875 10.04882812 C7.67346148 13.81893115 7.86433827 15.79650741 10 19 C13.93075644 18.42547254 13.93075644 18.42547254 17 16 C17.30599063 13.43083343 17.51087087 10.95241616 17.625 8.375 C17.66367188 7.66859375 17.70234375 6.9621875 17.7421875 6.234375 C17.83647724 4.49001476 17.91932891 2.74504309 18 1 C16.68 0.67 15.36 0.34 14 0 C16.64 0 19.28 0 22 0 C22 6.6 22 13.2 22 20 C22.99 20.33 23.98 20.66 25 21 C23.02 21 21.04 21 19 21 C18.67 20.01 18.34 19.02 18 18 C17.29875 18.66 16.5975 19.32 15.875 20 C12.52201252 22.33251303 10.99800164 22.60839155 7 22 C4.44050454 20.14657225 4.02081202 19.06243607 3 16 C2.92970879 13.42734182 2.90629168 10.88358569 2.9375 8.3125 C2.94201172 7.61060547 2.94652344 6.90871094 2.95117188 6.18554688 C2.96293073 4.45699462 2.98086546 2.72848635 3 1 C2.01 0.67 1.02 0.34 0 0 Z " fill="#282828" transform="translate(1062,942)"/>
<path d="M0 0 C3.5386994 1.65139305 4.81070153 2.71605229 7 6 C7.66624845 10.07463524 7.94496094 14.24356703 5.94921875 17.953125 C4.18683214 20.0950226 2.49210321 21.7539484 0 23 C-4.19491568 23.40335728 -6.5250009 23.24198067 -10.3125 21.3125 C-14.05309124 18.09385173 -14.80980879 15.82583564 -15.3125 11 C-14.94622233 7.4837344 -14.17542743 5.77554534 -12 3 C-8.06538376 -0.16955197 -4.97922113 -0.53348798 0 0 Z M-8.6953125 3.15625 C-10.55038109 5.77778405 -10.39860087 7.75531668 -10.375 10.9375 C-10.38273438 11.97777344 -10.39046875 13.01804687 -10.3984375 14.08984375 C-9.95421504 17.33440973 -9.32986492 18.72381861 -7 21 C-3.5 21.75 -3.5 21.75 0 21 C3.06528543 18.03359475 3.22415093 15.02249283 3.375 10.9375 C3.40287994 7.92181992 3.20190952 6.3530394 1.6953125 3.71875 C-0.013572 1.6313739 -0.013572 1.6313739 -3.5 1.5625 C-6.85370154 1.71118143 -6.85370154 1.71118143 -8.6953125 3.15625 Z " fill="#303030" transform="translate(795,941)"/>
<path d="M0 0 C3.70390021 2.02666238 5.65363011 3.48044516 8 7 C8.4913517 12.20832803 7.88996237 15.61522951 5 20 C2.12721821 22.39398482 0.27332022 22.96024433 -3.4375 23.5 C-8.16675851 22.83624442 -9.65681791 21.34318209 -13 18 C-14.74221711 14.51556578 -14.58675154 10.80112955 -14 7 C-10.60242193 0.86407543 -6.79897031 -0.56658086 0 0 Z M-8.6953125 3.71875 C-10.94596226 7.65401785 -10.50473229 11.59958753 -10 16 C-9.18816067 19.16788784 -9.18816067 19.16788784 -7 21 C-3.5 21.75 -3.5 21.75 0 21 C2.32986492 18.72381861 2.95421504 17.33440973 3.3984375 14.08984375 C3.39070312 13.04957031 3.38296875 12.00929688 3.375 10.9375 C3.38273438 9.89464844 3.39046875 8.85179687 3.3984375 7.77734375 C3.21666088 5.00909314 3.21666088 5.00909314 1.6953125 3.15625 C-1.66176489 0.8666304 -5.81433521 0.79794354 -8.6953125 3.71875 Z " fill="#383838" transform="translate(728,941)"/>
<path d="M0 0 C8.11111111 0 8.11111111 0 11 2 C12.54586876 5.09173752 12.29359521 7.59429552 12 11 C10.5 13.4375 10.5 13.4375 8 15 C5.24154167 15.32111824 2.79456032 15.18630402 0 15 C0 10.05 0 5.1 0 0 Z " fill="#F8F8F8" transform="translate(692,947)"/>
<path d="M0 0 C3.65236803 -0.33975517 5.61672415 -0.20830209 8.875 1.5625 C11 4 11 4 11.5625 7.5 C10.92152845 11.48826743 10.10034974 12.53795756 7 15 C6.34 15.66 5.68 16.32 5 17 C6.09646058 18.79639296 7.20245148 20.58697154 8.3125 22.375 C8.92738281 23.37273438 9.54226563 24.37046875 10.17578125 25.3984375 C11.90437775 28.19826812 11.90437775 28.19826812 15 30 C10.00702729 31.05115215 10.00702729 31.05115215 7 30 C3.50000466 25.70187488 0 20.66316974 0 15 C0.825 14.608125 1.65 14.21625 2.5 13.8125 C3.325 13.214375 4.15 12.61625 5 12 C5.65684792 7.90370598 5.65684792 7.90370598 5 4 C2.66169042 1.4595774 2.66169042 1.4595774 0 0 Z " fill="#202020" transform="translate(876,933)"/>
<path d="M0 0 C3.65236803 -0.33975517 5.61672415 -0.20830209 8.875 1.5625 C11 4 11 4 11.5625 7.5 C10.92152845 11.48826743 10.10034974 12.53795756 7 15 C6.34 15.66 5.68 16.32 5 17 C6.09646058 18.79639296 7.20245148 20.58697154 8.3125 22.375 C8.92738281 23.37273438 9.54226563 24.37046875 10.17578125 25.3984375 C11.90437775 28.19826812 11.90437775 28.19826812 15 30 C10.00702729 31.05115215 10.00702729 31.05115215 7 30 C3.50000466 25.70187488 0 20.66316974 0 15 C0.825 14.608125 1.65 14.21625 2.5 13.8125 C3.325 13.214375 4.15 12.61625 5 12 C5.65684792 7.90370598 5.65684792 7.90370598 5 4 C2.66169042 1.4595774 2.66169042 1.4595774 0 0 Z " fill="#1D1D1D" transform="translate(1175,933)"/>
<path d="M0 0 C7.21153846 -0.48076923 7.21153846 -0.48076923 10.5625 1.5625 C12 4 12 4 11.9375 7.5625 C11 11 11 11 9.9375 12.9375 C6.72427107 14.69959328 3.6157826 14.17782537 0 14 C0 9.38 0 4.76 0 0 Z " fill="#F7F7F7" transform="translate(999,934)"/>
<path d="M0 0 C7 0 7 0 9.4375 1 C11.5552381 3.71070476 11.57130492 5.74871362 11.37890625 9.125 C11 11 11 11 9.4375 13 C7 14 7 14 0 14 C0 9.38 0 4.76 0 0 Z " fill="#FAFAFA" transform="translate(1170,934)"/>
<path d="M0 0 C7 0 7 0 9.4375 1 C11.5552381 3.71070476 11.57130492 5.74871362 11.37890625 9.125 C11 11 11 11 9.4375 13 C7 14 7 14 0 14 C0 9.38 0 4.76 0 0 Z " fill="#FAFAFA" transform="translate(871,934)"/>
<path d="M0 0 C2.97 0 5.94 0 9 0 C9 4.95 9 9.9 9 15 C10.98 15 12.96 15 15 15 C14.67 15.66 14.34 16.32 14 17 C12.35 16.67 10.7 16.34 9 16 C9 20.29 9 24.58 9 29 C10.32 29.33 11.64 29.66 13 30 C9.04 30 5.08 30 1 30 C2.32 29.67 3.64 29.34 5 29 C5 19.76 5 10.52 5 1 C3.35 1 1.7 1 0 1 C0 0.67 0 0.34 0 0 Z " fill="#141414" transform="translate(990,933)"/>
<path d="M0 0 C2.64 0 5.28 0 8 0 C8 4.29 8 8.58 8 13 C10.31 13 12.62 13 15 13 C15 13.33 15 13.66 15 14 C12.69 14 10.38 14 8 14 C8 19.28 8 24.56 8 30 C5.36 30 2.72 30 0 30 C1.32 29.67 2.64 29.34 4 29 C4 19.76 4 10.52 4 1 C2.68 0.67 1.36 0.34 0 0 Z " fill="#151515" transform="translate(684,933)"/>
<path d="M0 0 C0.99 0 1.98 0 3 0 C3 1.98 3 3.96 3 6 C5.64 6 8.28 6 11 6 C11 6.33 11 6.66 11 7 C8.36 7 5.72 7 3 7 C3.33 12.94 3.66 18.88 4 25 C5.32 25.33 6.64 25.66 8 26 C8.33 24.68 8.66 23.36 9 22 C9.66 22 10.32 22 11 22 C9.125 26.875 9.125 26.875 8 28 C4.5625 27.8125 4.5625 27.8125 1 27 C-1.81802246 23.43896197 -1.22403535 19.06184662 -1.125 14.75 C-1.11597656 14.00492188 -1.10695313 13.25984375 -1.09765625 12.4921875 C-1.07418358 10.66131941 -1.03831525 8.83061762 -1 7 C-1.99 6.67 -2.98 6.34 -4 6 C-3.01 6 -2.02 6 -1 6 C-1.020625 5.195625 -1.04125 4.39125 -1.0625 3.5625 C-1 1 -1 1 0 0 Z " fill="#262626" transform="translate(1049,936)"/>
<path d="M0 0 C1.9375 1.5 1.9375 1.5 3 3 C0.97873716 3 -1.04291874 2.95743189 -3.0625 2.875 C-6.12447731 2.67354064 -6.12447731 2.67354064 -8 5 C-8.32013184 7.79477762 -8.32013184 7.79477762 -8.25 10.9375 C-8.25515625 11.99839844 -8.2603125 13.05929687 -8.265625 14.15234375 C-8.20859765 17.20171473 -8.20859765 17.20171473 -6 20 C-2.27698497 20.47730962 -1.20808915 20.1387261 2 18 C0.25 21.875 0.25 21.875 -2 23 C-4.8125 23.375 -4.8125 23.375 -8 23 C-10.57285724 20.827365 -12.48996919 19.02006162 -14 16 C-14.50872093 9.89534886 -14.06705978 6.88047174 -10 2 C-6.30513897 -0.46324069 -4.36706908 -0.38991688 0 0 Z " fill="#2A2A2A" transform="translate(956,941)"/>
<path d="M0 0 C1.11375 0.3403125 1.11375 0.3403125 2.25 0.6875 C2.25 2.0075 2.25 3.3275 2.25 4.6875 C1.651875 4.5225 1.05375 4.3575 0.4375 4.1875 C-1.86344336 3.5760876 -1.86344336 3.5760876 -4.75 3.6875 C-7.17479736 7.32469605 -7.13662577 9.54453482 -7.375 13.875 C-7.44976563 15.14730469 -7.52453125 16.41960938 -7.6015625 17.73046875 C-7.65054687 18.70628906 -7.69953125 19.68210937 -7.75 20.6875 C-6.43 21.0175 -5.11 21.3475 -3.75 21.6875 C-7.71 21.6875 -11.67 21.6875 -15.75 21.6875 C-14.76 21.0275 -13.77 20.3675 -12.75 19.6875 C-12.24468134 17.76308585 -12.24468134 17.76308585 -12.23828125 15.5546875 C-12.20283203 14.74902344 -12.16738281 13.94335938 -12.13085938 13.11328125 C-12.10830078 12.27152344 -12.08574219 11.42976562 -12.0625 10.5625 C-12.02833984 9.71300781 -11.99417969 8.86351562 -11.95898438 7.98828125 C-11.87640827 5.88848895 -11.81153022 3.78801436 -11.75 1.6875 C-13.07 1.3575 -14.39 1.0275 -15.75 0.6875 C-13.11 0.6875 -10.47 0.6875 -7.75 0.6875 C-7.42 1.3475 -7.09 2.0075 -6.75 2.6875 C-6.193125 2.171875 -5.63625 1.65625 -5.0625 1.125 C-2.75 -0.3125 -2.75 -0.3125 0 0 Z " fill="#1E1E1E" transform="translate(1106.75,941.3125)"/>
<path d="M0 0 C0.99 0 1.98 0 3 0 C3 1.98 3 3.96 3 6 C5.64 6 8.28 6 11 6 C11 6.33 11 6.66 11 7 C8.69 7 6.38 7 4 7 C4 13.27 4 19.54 4 26 C7.83736322 25.04065919 8.59660228 24.76390737 11 22 C10.42655063 24.86724686 10.1385485 25.8614515 8 28 C5.18322748 28.36112468 3.65474134 28.5005242 1.3581543 26.74487305 C-0.33025618 24.57570719 -0.35086135 23.49048363 -0.29296875 20.76953125 C-0.28330078 19.96708984 -0.27363281 19.16464844 -0.26367188 18.33789062 C-0.23853516 17.50451172 -0.21339844 16.67113281 -0.1875 15.8125 C-0.17396484 14.96751953 -0.16042969 14.12253906 -0.14648438 13.25195312 C-0.11115799 11.16769616 -0.05735139 9.08376723 0 7 C-1.32 6.67 -2.64 6.34 -4 6 C-2.68 6 -1.36 6 0 6 C0 4.02 0 2.04 0 0 Z " fill="#2A2A2A" transform="translate(1296,936)"/>
<path d="M0 0 C7.3028169 -0.35915493 7.3028169 -0.35915493 10.0625 1.0625 C11.59987081 4.23973301 10.8466463 6.67388953 10 10 C6.3558226 12.4294516 4.28758728 12.16179575 0 12 C0 8.04 0 4.08 0 0 Z " fill="#F6F6F6" transform="translate(692,934)"/>
<path d="M0 0 C3.3 0 6.6 0 10 0 C9.01 0.33 8.02 0.66 7 1 C7.80906755 3.31375405 8.62206917 5.62598948 9.4375 7.9375 C9.66759766 8.59685547 9.89769531 9.25621094 10.13476562 9.93554688 C11.11964592 13.22328622 11.11964592 13.22328622 13 16 C13.66 14.02 14.32 12.04 15 10 C15.66 10.66 16.32 11.32 17 12 C15.68 15.3 14.36 18.6 13 22 C8.0616738 19.5308369 7.44335667 16.9740983 5.75 12.0625 C5.481875 11.33353516 5.21375 10.60457031 4.9375 9.85351562 C3.83722981 6.79128405 3 4.27640979 3 1 C2.01 0.67 1.02 0.34 0 0 Z " fill="#292929" transform="translate(805,942)"/>
<path d="M0 0 C2.31 0 4.62 0 7 0 C8.0625 2.375 8.0625 2.375 9 5 C8.67 5.66 8.34 6.32 8 7 C7.77049681 9.204364 7.58924067 11.41392173 7.4375 13.625 C7.35371094 14.81351563 7.26992188 16.00203125 7.18359375 17.2265625 C7.12300781 18.14179687 7.06242188 19.05703125 7 20 C8.65 20 10.3 20 12 20 C12 20.33 12 20.66 12 21 C8.04 21 4.08 21 0 21 C0.99 20.67 1.98 20.34 3 20 C3 13.73 3 7.46 3 1 C2.01 0.67 1.02 0.34 0 0 Z " fill="#262626" transform="translate(740,942)"/>
<path d="M0 0 C2.31 0 4.62 0 7 0 C8.05619003 4.28297531 8.11702092 8.42985646 8.0625 12.8125 C8.05798828 13.50537109 8.05347656 14.19824219 8.04882812 14.91210938 C8.03713156 16.60811068 8.01919924 18.30406703 8 20 C8.99 20.33 9.98 20.66 11 21 C7.37 21 3.74 21 0 21 C0.99 20.34 1.98 19.68 3 19 C3.50531866 17.07558585 3.50531866 17.07558585 3.51171875 14.8671875 C3.54716797 14.06152344 3.58261719 13.25585938 3.61914062 12.42578125 C3.64169922 11.58402344 3.66425781 10.74226562 3.6875 9.875 C3.72166016 9.02550781 3.75582031 8.17601562 3.79101562 7.30078125 C3.87359173 5.20098895 3.93846978 3.10051436 4 1 C2.68 0.67 1.36 0.34 0 0 Z " fill="#1B1B1B" transform="translate(1111,942)"/>
<path d="M0 0 C2.64 0 5.28 0 8 0 C8 6.6 8 13.2 8 20 C8.99 20.33 9.98 20.66 11 21 C9.02 21 7.04 21 5 21 C3.94380997 16.71702469 3.88297908 12.57014354 3.9375 8.1875 C3.94201172 7.49462891 3.94652344 6.80175781 3.95117188 6.08789062 C3.96286844 4.39188932 3.98080076 2.69593297 4 1 C2.68 0.67 1.36 0.34 0 0 Z " fill="#1F1F1F" transform="translate(1076,942)"/>
<path d="M0 0 C2.31 0 4.62 0 7 0 C7.33 0.99 7.66 1.98 8 3 C8.66 2.67 9.32 2.34 10 2 C9.68289063 2.68449219 9.36578125 3.36898437 9.0390625 4.07421875 C7.85883043 7.39750379 7.58802755 10.29754535 7.375 13.8125 C7.26285156 15.55466797 7.26285156 15.55466797 7.1484375 17.33203125 C7.09945312 18.21246094 7.05046875 19.09289062 7 20 C8.65 20 10.3 20 12 20 C12 20.33 12 20.66 12 21 C8.04 21 4.08 21 0 21 C0.99 20.34 1.98 19.68 3 19 C3.50531866 17.07558585 3.50531866 17.07558585 3.51171875 14.8671875 C3.54716797 14.06152344 3.58261719 13.25585938 3.61914062 12.42578125 C3.64169922 11.58402344 3.66425781 10.74226562 3.6875 9.875 C3.72166016 9.02550781 3.75582031 8.17601562 3.79101562 7.30078125 C3.87359173 5.20098895 3.93846978 3.10051436 4 1 C2.68 0.67 1.36 0.34 0 0 Z " fill="#181818" transform="translate(760,942)"/>
<path d="M0 0 C3.5 0.25 3.5 0.25 5.5 2.25 C4.94444444 6.80555556 4.94444444 6.80555556 3.5 8.25 C1.81391034 8.32205511 0.12499341 8.33386068 -1.5625 8.3125 C-2.48160156 8.30347656 -3.40070313 8.29445313 -4.34765625 8.28515625 C-5.05792969 8.27355469 -5.76820312 8.26195312 -6.5 8.25 C-5.47492163 0.39106583 -5.47492163 0.39106583 0 0 Z " fill="#EBEBEB" transform="translate(1032.5,942.75)"/>
<path d="M0 0 C3.4375 0.1875 3.4375 0.1875 4.4375 1.1875 C4.5625 4.1875 4.5625 4.1875 4.4375 7.1875 C3.4375 8.1875 3.4375 8.1875 1.15234375 8.28515625 C-0.22244141 8.26775391 -0.22244141 8.26775391 -1.625 8.25 C-2.54410156 8.24097656 -3.46320313 8.23195313 -4.41015625 8.22265625 C-5.12042969 8.21105469 -5.83070312 8.19945312 -6.5625 8.1875 C-5.53254608 0.29118664 -5.53254608 0.29118664 0 0 Z " fill="#F1F1F1" transform="translate(1255.5625,942.8125)"/>
<path d="M0 0 C3.4375 0.1875 3.4375 0.1875 4.4375 1.1875 C4.5625 4.1875 4.5625 4.1875 4.4375 7.1875 C3.4375 8.1875 3.4375 8.1875 1.15234375 8.28515625 C-0.22244141 8.26775391 -0.22244141 8.26775391 -1.625 8.25 C-2.54410156 8.24097656 -3.46320313 8.23195313 -4.41015625 8.22265625 C-5.12042969 8.21105469 -5.83070312 8.19945312 -6.5625 8.1875 C-5.53254608 0.29118664 -5.53254608 0.29118664 0 0 Z " fill="#F1F1F1" transform="translate(1203.5625,942.8125)"/>
<path d="M0 0 C2.97268023 0.32137084 4.552109 0.52324729 6.63671875 2.7421875 C8.98804246 6.63635685 8.77434771 10.60281123 8 15 C6.5769371 17.51012484 5.1213441 18.9847231 3 21 C2.01 20.67 1.02 20.34 0 20 C0.495 19.38125 0.99 18.7625 1.5 18.125 C3.60743732 13.73450559 3.6130969 9.79473215 3 5 C1.68772566 1.96534298 1.68772566 1.96534298 0 0 Z " fill="#1E1E1E" transform="translate(794,942)"/>
<path d="M0 0 C3 0.25 3 0.25 5 2.25 C5.1875 4.8125 5.1875 4.8125 5 7.25 C4 8.25 4 8.25 1.71484375 8.34765625 C0.34005859 8.33025391 0.34005859 8.33025391 -1.0625 8.3125 C-1.98160156 8.30347656 -2.90070312 8.29445313 -3.84765625 8.28515625 C-4.55792969 8.27355469 -5.26820313 8.26195312 -6 8.25 C-4.97802198 0.41483516 -4.97802198 0.41483516 0 0 Z " fill="#F4F4F4" transform="translate(904,942.75)"/>
<path d="M0 0 C2.01822917 0.06510417 4.03645833 0.13020833 6.0546875 0.1953125 C5.7421875 3.5703125 5.7421875 3.5703125 5.0546875 7.1953125 C2.0546875 9.1953125 2.0546875 9.1953125 -0.5703125 8.8828125 C-2.9453125 8.1953125 -2.9453125 8.1953125 -3.9453125 7.1953125 C-4.1328125 4.7578125 -4.1328125 4.7578125 -3.9453125 2.1953125 C-1.9453125 0.1953125 -1.9453125 0.1953125 0 0 Z " fill="#F0F0F0" transform="translate(1275.9453125,952.8046875)"/>
<path d="M0 0 C2.01822917 0.06510417 4.03645833 0.13020833 6.0546875 0.1953125 C5.7421875 3.5703125 5.7421875 3.5703125 5.0546875 7.1953125 C2.0546875 9.1953125 2.0546875 9.1953125 -0.5703125 8.8828125 C-2.9453125 8.1953125 -2.9453125 8.1953125 -3.9453125 7.1953125 C-4.1328125 4.7578125 -4.1328125 4.7578125 -3.9453125 2.1953125 C-1.9453125 0.1953125 -1.9453125 0.1953125 0 0 Z " fill="#F2F2F2" transform="translate(924.9453125,952.8046875)"/>
<path d="M0 0 C1.32 0.33 2.64 0.66 4 1 C3.01 1.680625 3.01 1.680625 2 2.375 C-0.6483831 5.85100282 -0.49778565 8.24487611 -0.33984375 12.515625 C0.10539733 15.77049084 1.25459859 18.23644777 3 21 C0.10905762 20.69025617 -1.04691751 19.95829554 -3.25 18 C-5.62094609 13.93552099 -5.97687114 10.60178966 -5 6 C-3.56015127 3.55873399 -2.05565684 2.00426542 0 0 Z " fill="#171717" transform="translate(719,942)"/>
<path d="M0 0 C3.65236803 -0.33975517 5.61672415 -0.20830209 8.875 1.5625 C11 4 11 4 11.5625 7.5 C10.92323536 11.47764662 10.18788506 12.63185681 7 15 C6.01 15.33 5.02 15.66 4 16 C4.165 15.505 4.33 15.01 4.5 14.5 C5.20795366 10.96023172 5.68880709 7.57593469 5 4 C2.66169042 1.4595774 2.66169042 1.4595774 0 0 Z " fill="#232323" transform="translate(1175,933)"/>
<path d="M0 0 C0 0.33 0 0.66 0 1 C-2.05078125 1.22786458 -4.1015625 1.45572917 -6.15234375 1.68359375 C-8.01140229 1.81886614 -8.01140229 1.81886614 -9 3 C-9.04063832 4.66617115 -9.042721 6.33388095 -9 8 C-5.30458414 8.95024979 -2.69541586 8.95024979 1 8 C0 10 0 10 -2.1875 11.125 C-5.379892 12.11818862 -7.67896301 12.43317874 -11 12 C-13.29419232 9.93522692 -13.88855141 8.49532706 -14.5625 5.5 C-14 3 -14 3 -11.5 0.625 C-6.96436419 -1.48083091 -4.82117734 -0.99748497 0 0 Z " fill="#292929" transform="translate(931,952)"/>
<path d="M0 0 C4.90094703 -0.288291 8.21612143 -0.33871638 12 3 C12.8125 6.1875 12.8125 6.1875 13 9 C10 11 10 11 7 11 C7.33 8.69 7.66 6.38 8 4 C5.36 3.01 2.72 2.02 0 1 C0 0.67 0 0.34 0 0 Z " fill="#323232" transform="translate(1029,941)"/>
<path d="M0 0 C5.02237015 -0.29543354 7.9107578 -0.00679573 12 3 C13 4 13 4 13.0625 7.0625 C13.041875 8.031875 13.02125 9.00125 13 10 C11.68 10.33 10.36 10.66 9 11 C7.768606 8.53721199 7.92840804 6.7204945 8 4 C5.36 3.01 2.72 2.02 0 1 C0 0.67 0 0.34 0 0 Z " fill="#353535" transform="translate(900,941)"/>
<path d="M0 0 C7.11008111 -0.4820394 7.11008111 -0.4820394 11 1.625 C13 4 13 4 13.3125 7.25 C13.1578125 8.61125 13.1578125 8.61125 13 10 C11.68 10.33 10.36 10.66 9 11 C7.64560332 8.29120665 7.93498549 5.99066732 8 3 C5.36 2.34 2.72 1.68 0 1 C0 0.67 0 0.34 0 0 Z " fill="#343434" transform="translate(1251,941)"/>
<path d="M0 0 C2.86724686 0.57344937 3.8614515 0.8614515 6 3 C6.125 6.125 6.125 6.125 6 9 C3.11584117 10.44207941 0.58278472 10.09394887 -2.625 10.0625 C-3.81351563 10.05347656 -5.00203125 10.04445313 -6.2265625 10.03515625 C-7.14179687 10.02355469 -8.05703125 10.01195312 -9 10 C-9 9.67 -9 9.34 -9 9 C-5.7 8.67 -2.4 8.34 1 8 C1.20970559 3.85906302 1.20970559 3.85906302 0 0 Z " fill="#1D1D1D" transform="translate(1206,942)"/>
<path d="M0 0 C1.11375 0.3403125 1.11375 0.3403125 2.25 0.6875 C2.25 2.0075 2.25 3.3275 2.25 4.6875 C1.651875 4.5225 1.05375 4.3575 0.4375 4.1875 C-2.90649939 3.42315728 -5.50068088 3.7911361 -8.75 4.6875 C-8.42 3.3675 -8.09 2.0475 -7.75 0.6875 C-7.42 1.3475 -7.09 2.0075 -6.75 2.6875 C-6.193125 2.171875 -5.63625 1.65625 -5.0625 1.125 C-2.75 -0.3125 -2.75 -0.3125 0 0 Z " fill="#3C3C3C" transform="translate(1106.75,941.3125)"/>
<path d="M0 0 C1.9375 1.5 1.9375 1.5 3 3 C1.04066958 3 -0.91982315 2.94001153 -2.875 2.8125 C-6.40979826 3.0245879 -8.14143369 3.98218849 -11 6 C-11 3 -11 3 -9.4375 1.3125 C-6.10268041 -0.48317209 -3.73209414 -0.40713754 0 0 Z " fill="#424242" transform="translate(956,941)"/>
<path d="M0 0 C-0.33 0.99 -0.66 1.98 -1 3 C-3.97 2.505 -3.97 2.505 -7 2 C-7.33 3.32 -7.66 4.64 -8 6 C-8.99 6 -9.98 6 -11 6 C-10.625 3.5625 -10.625 3.5625 -10 1 C-6.78548731 -0.60725635 -3.56387464 -0.05748185 0 0 Z " fill="#3B3B3B" transform="translate(930,941)"/>
<path d="M0 0 C0.33 0 0.66 0 1 0 C1.66 3.3 2.32 6.6 3 10 C0.525 9.01 0.525 9.01 -2 8 C-2.125 5.125 -2.125 5.125 -2 2 C-1.34 1.34 -0.68 0.68 0 0 Z " fill="#191919" transform="translate(1271,954)"/>
<path d="M0 0 C0.763125 0.20625 1.52625 0.4125 2.3125 0.625 C2.6425 1.945 2.9725 3.265 3.3125 4.625 C1.9925 4.625 0.6725 4.625 -0.6875 4.625 C-0.6875 3.965 -0.6875 3.305 -0.6875 2.625 C-2.3375 2.955 -3.9875 3.285 -5.6875 3.625 C-5.6875 2.965 -5.6875 2.305 -5.6875 1.625 C-2.6875 -0.375 -2.6875 -0.375 0 0 Z " fill="#3B3B3B" transform="translate(754.6875,941.375)"/>
<path d="M0 0 C0 0.33 0 0.66 0 1 C-1.2375 1.12375 -2.475 1.2475 -3.75 1.375 C-6.86359338 1.77657653 -9.41087817 2.10794943 -12 4 C-13.26804566 6.0335948 -13.26804566 6.0335948 -14 8 C-14.375 5.75 -14.375 5.75 -14 3 C-9.21415561 -1.54655217 -6.05925115 -1.25363817 0 0 Z " fill="#515151" transform="translate(1282,952)"/>
<path d="M0 0 C0 0.33 0 0.66 0 1 C-1.2375 1.12375 -2.475 1.2475 -3.75 1.375 C-6.86359338 1.77657653 -9.41087817 2.10794943 -12 4 C-13.26804566 6.0335948 -13.26804566 6.0335948 -14 8 C-14.375 5.75 -14.375 5.75 -14 3 C-9.21415561 -1.54655217 -6.05925115 -1.25363817 0 0 Z " fill="#4C4C4C" transform="translate(931,952)"/>
<path d="M0 0 C2.625 0.375 2.625 0.375 5 1 C5.33 2.32 5.66 3.64 6 5 C4.68 5 3.36 5 2 5 C2 4.34 2 3.68 2 3 C0.68 2.67 -0.64 2.34 -2 2 C-1.34 1.34 -0.68 0.68 0 0 Z " fill="#373737" transform="translate(772,941)"/>
<path d="M0 0 C1.32 0.66 2.64 1.32 4 2 C3.67 3.32 3.34 4.64 3 6 C1.68 5.67 0.36 5.34 -1 5 C-0.67 3.35 -0.34 1.7 0 0 Z " fill="#363636" transform="translate(972,958)"/>
<path d="M0 0 C-1 2 -1 2 -2.84765625 2.6328125 C-3.57855469 2.79523437 -4.30945313 2.95765625 -5.0625 3.125 C-6.16271484 3.37636719 -6.16271484 3.37636719 -7.28515625 3.6328125 C-7.85105469 3.75398437 -8.41695312 3.87515625 -9 4 C-9 3.01 -9 2.02 -9 1 C-6.04335481 -0.4783226 -3.25770263 -0.06032783 0 0 Z M-12 3 C-11.34 3.33 -10.68 3.66 -10 4 C-10.99 4.66 -11.98 5.32 -13 6 C-12.67 5.01 -12.34 4.02 -12 3 Z " fill="#4D4D4D" transform="translate(795,941)"/>
<path d="M0 0 C0.99 0.33 1.98 0.66 3 1 C2.67 2.65 2.34 4.3 2 6 C0.68 5.34 -0.64 4.68 -2 4 C-1.34 2.68 -0.68 1.36 0 0 Z " fill="#2F2F2F" transform="translate(1312,958)"/>
<path d="M0 0 C0.99 0.33 1.98 0.66 3 1 C2.67 2.65 2.34 4.3 2 6 C0.68 5.34 -0.64 4.68 -2 4 C-1.34 2.68 -0.68 1.36 0 0 Z " fill="#2F2F2F" transform="translate(1143,958)"/>
<path d="M0 0 C0.99 0.33 1.98 0.66 3 1 C2.67 2.65 2.34 4.3 2 6 C0.68 5.34 -0.64 4.68 -2 4 C-1.34 2.68 -0.68 1.36 0 0 Z " fill="#2E2E2E" transform="translate(844,958)"/>
<path d="M0 0 C2.125 0.375 2.125 0.375 4 1 C1.31158141 3.25245881 -0.64641875 4.88213958 -4 6 C-2.84826645 3.53199953 -1.95216435 1.95216435 0 0 Z " fill="#222222" transform="translate(719,942)"/>
<path d="M0 0 C0.99 0.33 1.98 0.66 3 1 C2.34 2.32 1.68 3.64 1 5 C0.01 5 -0.98 5 -2 5 C-2 3.68 -2 2.36 -2 1 C-1.34 0.67 -0.68 0.34 0 0 Z " fill="#1B1B1B" transform="translate(1272,942)"/>
</svg>
